# Blender v3.2.1 OBJ File: 'goal.blend'
# www.blender.org
mtllib goal.mtl
o Cube
v 0.900000 0.900000 -1.000000
v 0.900000 1.000000 -0.900000
v 1.000000 0.900000 -0.900000
v 0.900000 -1.000000 -0.900000
v 0.900000 -0.900000 -1.000000
v 1.000000 -0.900000 -0.900000
v 1.000000 0.900000 0.900000
v 0.900000 1.000000 0.900000
v 0.900000 0.900000 1.000000
v 1.000000 -0.900000 0.900000
v 0.900000 -0.900000 1.000000
v 0.900000 -1.000000 0.900000
v -0.900000 1.000000 -0.900000
v -1.000000 0.900000 -1.000000
v -1.000000 -0.900000 -1.000000
v -0.900000 -1.000000 -0.900000
v -1.000000 0.900000 0.900000
v -0.900000 0.900000 1.000000
v -0.900000 1.000000 0.900000
v -0.900000 -1.000000 0.900000
v -0.900000 -0.900000 1.000000
v -1.000000 -0.900000 0.900000
vt 0.050000 0.950000
vt 0.950000 0.050000
vt 0.950000 0.950000
vt 0.950000 0.950000
vt 0.000000 0.050000
vt 0.950000 0.050000
vt 0.950000 0.950000
vt 0.050000 0.050000
vt 0.950000 0.050000
vt 0.050000 0.950000
vt 0.950000 0.050000
vt 0.950000 0.950000
vt 0.950000 0.950000
vt 0.050000 0.050000
vt 0.950000 0.050000
vt 0.950000 1.000000
vt 1.000000 0.950000
vt 0.050000 1.000000
vt 0.000000 0.950000
vt 1.000000 0.050000
vt 0.950000 0.000000
vt 0.000000 0.050000
vt 0.050000 0.000000
vt 0.050000 0.050000
vt 0.000000 0.050000
vt 0.050000 0.000000
vt 0.050000 0.050000
vt 0.950000 0.000000
vt 1.000000 0.050000
vt 1.000000 1.000000
vt 1.000000 0.950000
vt 1.000000 0.950000
vt 1.000000 0.050000
vt 1.000000 0.950000
vt 0.000000 1.000000
vt 1.000000 0.950000
vt 0.050000 0.050000
vt 1.000000 0.050000
vt 0.000000 0.950000
vt 0.050000 0.950000
vt 0.050000 0.950000
vt 1.000000 0.050000
vt 1.000000 0.050000
vt 0.050000 0.950000
vn 0.0000 -1.0000 0.0000
vn -1.0000 0.0000 0.0000
vn 0.0000 0.0000 1.0000
vn 0.0000 1.0000 0.0000
vn 1.0000 0.0000 0.0000
vn 0.5774 0.5774 -0.5774
vn 0.5774 -0.5774 -0.5774
vn 0.5774 0.5774 0.5774
vn 0.5774 -0.5774 0.5774
vn -0.5774 0.5774 0.5774
vn -0.5774 -0.5774 0.5774
vn -0.7071 -0.7071 0.0000
vn 0.0000 -0.7071 -0.7071
vn 0.7071 0.0000 -0.7071
vn -0.7071 0.0000 0.7071
vn 0.7071 0.0000 0.7071
vn 0.0000 0.7071 0.7071
vn 0.7071 0.7071 0.0000
vn 0.0000 -0.7071 0.7071
vn -0.7071 0.7071 0.0000
vn 0.0000 0.7071 -0.7071
vn 0.7071 -0.7071 0.0000
vn 0.0000 0.0000 -1.0000
usemtl Material
s off
f 4/1/1 20/2/1 16/3/1
f 17/4/2 15/5/2 22/6/2
f 9/7/3 21/8/3 11/9/3
f 13/10/4 8/11/4 2/12/4
f 3/13/5 10/14/5 6/15/5
f 1/16/6 2/12/6 3/17/6
f 4/1/7 5/18/7 6/19/7
f 7/20/8 8/11/8 9/21/8
f 10/22/9 11/23/9 12/24/9
f 17/25/10 18/26/10 19/27/10
f 20/2/11 21/28/11 22/29/11
f 16/3/12 22/29/12 15/30/12
f 16/3/13 5/18/13 4/1/13
f 6/15/14 1/31/14 3/13/14
f 18/32/15 22/6/15 21/33/15
f 11/9/16 7/34/16 9/7/16
f 19/27/17 9/21/17 8/11/17
f 8/11/18 3/17/18 2/12/18
f 12/24/19 21/28/19 20/2/19
f 13/10/20 17/25/20 19/27/20
f 13/10/21 1/16/21 14/35/21
f 4/1/22 10/22/22 12/24/22
f 14/36/23 5/37/23 15/38/23
f 4/1/1 12/24/1 20/2/1
f 17/4/2 14/39/2 15/5/2
f 9/7/3 18/40/3 21/8/3
f 13/10/4 19/27/4 8/11/4
f 3/13/5 7/41/5 10/14/5
f 16/3/12 20/2/12 22/29/12
f 16/3/13 15/30/13 5/18/13
f 6/15/14 5/42/14 1/31/14
f 18/32/15 17/4/15 22/6/15
f 11/9/16 10/43/16 7/34/16
f 19/27/17 18/26/17 9/21/17
f 8/11/18 7/20/18 3/17/18
f 12/24/19 11/23/19 21/28/19
f 13/10/20 14/35/20 17/25/20
f 13/10/21 2/12/21 1/16/21
f 4/1/22 6/19/22 10/22/22
f 14/36/23 1/44/23 5/37/23
